<?xml version="1.0" encoding="UTF-8" standalone="no"?>
<!DOCTYPE svg PUBLIC "-//W3C//DTD SVG 1.1//EN"
 "http://www.w3.org/Graphics/SVG/1.1/DTD/svg11.dtd">
<!-- Generated by graphviz version 2.36.0 (20140111.2315)
 -->
<!-- Title: models_diagram Pages: 1 -->
<svg width="881pt" height="1236pt"
 viewBox="0.00 0.00 881.50 1236.00" xmlns="http://www.w3.org/2000/svg" xmlns:xlink="http://www.w3.org/1999/xlink">
<g id="graph0" class="graph" transform="scale(1 1) rotate(0) translate(4 1232)">
<title>models_diagram</title>
<polygon fill="white" stroke="none" points="-4,4 -4,-1232 877.496,-1232 877.496,4 -4,4"/>
<!-- Lock -->
<g id="node1" class="node"><title>Lock</title>
<path fill="none" stroke="black" d="M11.5,-198C11.5,-198 118.5,-198 118.5,-198 124.5,-198 130.5,-204 130.5,-210 130.5,-210 130.5,-292 130.5,-292 130.5,-298 124.5,-304 118.5,-304 118.5,-304 11.5,-304 11.5,-304 5.5,-304 -0.5,-298 -0.5,-292 -0.5,-292 -0.5,-210 -0.5,-210 -0.5,-204 5.5,-198 11.5,-198"/>
<text text-anchor="middle" x="65" y="-288.8" font-family="Times,serif" font-size="14.00">Lock</text>
<polyline fill="none" stroke="black" points="-0.5,-281 130.5,-281 "/>
<text text-anchor="start" x="7.5" y="-265.8" font-family="Times,serif" font-size="14.00">id :integer</text>
<text text-anchor="start" x="7.5" y="-250.8" font-family="Times,serif" font-size="14.00">locker_id :integer</text>
<text text-anchor="start" x="7.5" y="-235.8" font-family="Times,serif" font-size="14.00">locked_id :integer</text>
<text text-anchor="start" x="7.5" y="-220.8" font-family="Times,serif" font-size="14.00">created_at :datetime</text>
<text text-anchor="start" x="7.5" y="-205.8" font-family="Times,serif" font-size="14.00">updated_at :datetime</text>
</g>
<!-- ProjectUser -->
<g id="node2" class="node"><title>ProjectUser</title>
<path fill="none" stroke="black" d="M685.5,-477C685.5,-477 792.5,-477 792.5,-477 798.5,-477 804.5,-483 804.5,-489 804.5,-489 804.5,-571 804.5,-571 804.5,-577 798.5,-583 792.5,-583 792.5,-583 685.5,-583 685.5,-583 679.5,-583 673.5,-577 673.5,-571 673.5,-571 673.5,-489 673.5,-489 673.5,-483 679.5,-477 685.5,-477"/>
<text text-anchor="middle" x="739" y="-567.8" font-family="Times,serif" font-size="14.00">ProjectUser</text>
<polyline fill="none" stroke="black" points="673.5,-560 804.5,-560 "/>
<text text-anchor="start" x="681.5" y="-544.8" font-family="Times,serif" font-size="14.00">id :integer</text>
<text text-anchor="start" x="681.5" y="-529.8" font-family="Times,serif" font-size="14.00">project_id :integer</text>
<text text-anchor="start" x="681.5" y="-514.8" font-family="Times,serif" font-size="14.00">user_id :integer</text>
<text text-anchor="start" x="681.5" y="-499.8" font-family="Times,serif" font-size="14.00">created_at :datetime</text>
<text text-anchor="start" x="681.5" y="-484.8" font-family="Times,serif" font-size="14.00">updated_at :datetime</text>
</g>
<!-- Task -->
<g id="node3" class="node"><title>Task</title>
<path fill="none" stroke="black" d="M268.5,-364.5C268.5,-364.5 423.5,-364.5 423.5,-364.5 429.5,-364.5 435.5,-370.5 435.5,-376.5 435.5,-376.5 435.5,-683.5 435.5,-683.5 435.5,-689.5 429.5,-695.5 423.5,-695.5 423.5,-695.5 268.5,-695.5 268.5,-695.5 262.5,-695.5 256.5,-689.5 256.5,-683.5 256.5,-683.5 256.5,-376.5 256.5,-376.5 256.5,-370.5 262.5,-364.5 268.5,-364.5"/>
<text text-anchor="middle" x="346" y="-680.3" font-family="Times,serif" font-size="14.00">Task</text>
<polyline fill="none" stroke="black" points="256.5,-672.5 435.5,-672.5 "/>
<text text-anchor="start" x="264.5" y="-657.3" font-family="Times,serif" font-size="14.00">id :integer</text>
<text text-anchor="start" x="264.5" y="-642.3" font-family="Times,serif" font-size="14.00">name :string</text>
<text text-anchor="start" x="264.5" y="-627.3" font-family="Times,serif" font-size="14.00">expected_start_date :datetime</text>
<text text-anchor="start" x="264.5" y="-612.3" font-family="Times,serif" font-size="14.00">expected_end_date :datetime</text>
<text text-anchor="start" x="264.5" y="-597.3" font-family="Times,serif" font-size="14.00">start_date :datetime</text>
<text text-anchor="start" x="264.5" y="-582.3" font-family="Times,serif" font-size="14.00">end_date :datetime</text>
<text text-anchor="start" x="264.5" y="-567.3" font-family="Times,serif" font-size="14.00">parent_id :integer</text>
<text text-anchor="start" x="264.5" y="-552.3" font-family="Times,serif" font-size="14.00">level :integer</text>
<text text-anchor="start" x="264.5" y="-537.3" font-family="Times,serif" font-size="14.00">man_hours :decimal</text>
<text text-anchor="start" x="264.5" y="-522.3" font-family="Times,serif" font-size="14.00">progress :decimal</text>
<text text-anchor="start" x="264.5" y="-507.3" font-family="Times,serif" font-size="14.00">description :string</text>
<text text-anchor="start" x="264.5" y="-492.3" font-family="Times,serif" font-size="14.00">deleted :boolean</text>
<text text-anchor="start" x="264.5" y="-477.3" font-family="Times,serif" font-size="14.00">project_id :integer</text>
<text text-anchor="start" x="264.5" y="-462.3" font-family="Times,serif" font-size="14.00">user_id :integer</text>
<text text-anchor="start" x="264.5" y="-447.3" font-family="Times,serif" font-size="14.00">created_at :datetime</text>
<text text-anchor="start" x="264.5" y="-432.3" font-family="Times,serif" font-size="14.00">updated_at :datetime</text>
<text text-anchor="start" x="264.5" y="-417.3" font-family="Times,serif" font-size="14.00">days_cost :float</text>
<text text-anchor="start" x="264.5" y="-402.3" font-family="Times,serif" font-size="14.00">resources_cost :float</text>
<text text-anchor="start" x="264.5" y="-387.3" font-family="Times,serif" font-size="14.00">children_count :integer</text>
<text text-anchor="start" x="264.5" y="-372.3" font-family="Times,serif" font-size="14.00">reports_count :integer</text>
</g>
<!-- Task&#45;&gt;Lock -->
<g id="edge6" class="edge"><title>Task&#45;&gt;Lock</title>
<path fill="none" stroke="#46666f" d="M248.834,-493.861C184.436,-464.918 104.896,-416.983 66,-346 60.716,-336.357 58.1441,-325.279 57.2226,-314.189"/>
<ellipse fill="none" stroke="#46666f" cx="252.551" cy="-495.505" rx="4.00002" ry="4.00002"/>
<polygon fill="#46666f" stroke="#46666f" points="57.2164,-314.033 61.3063,-303.859 57.0132,-309.037 56.81,-304.041 56.81,-304.041 56.81,-304.041 57.0132,-309.037 52.3137,-304.224 57.2164,-314.033 57.2164,-314.033"/>
<text text-anchor="middle" x="106" y="-334.3" font-family="Times,serif" font-size="14.00">lockings_from</text>
</g>
<!-- Task&#45;&gt;Lock -->
<g id="edge8" class="edge"><title>Task&#45;&gt;Lock</title>
<path fill="none" stroke="#4e510e" d="M250.526,-433.37C217.53,-400.49 180.248,-363.523 146,-330 139.883,-324.013 133.486,-317.788 127.083,-311.584"/>
<ellipse fill="none" stroke="#4e510e" cx="253.375" cy="-436.211" rx="4.00002" ry="4.00002"/>
<polygon fill="#4e510e" stroke="#4e510e" points="126.768,-311.278 122.711,-301.091 123.175,-307.801 119.581,-304.324 119.581,-304.324 119.581,-304.324 123.175,-307.801 116.452,-307.558 126.768,-311.278 126.768,-311.278"/>
<text text-anchor="middle" x="189" y="-334.3" font-family="Times,serif" font-size="14.00">lockings_to</text>
</g>
<!-- Task&#45;&gt;Task -->
<g id="edge1" class="edge"><title>Task&#45;&gt;Task</title>
<path fill="none" stroke="#d44963" d="M443.64,-537.94C449.491,-536.048 453,-533.401 453,-530 453,-526.969 450.212,-524.537 445.463,-522.704"/>
<ellipse fill="none" stroke="#d44963" cx="439.656" cy="-538.888" rx="4.00001" ry="4.00001"/>
<polygon fill="#d44963" stroke="#d44963" points="445.444,-522.699 436.896,-515.83 440.605,-521.442 435.765,-520.185 435.765,-520.185 435.765,-520.185 440.605,-521.442 434.634,-524.541 445.444,-522.699 445.444,-522.699"/>
<text text-anchor="middle" x="475.5" y="-526.3" font-family="Times,serif" font-size="14.00">children</text>
</g>
<!-- Task&#45;&gt;Task -->
<g id="edge7" class="edge"><title>Task&#45;&gt;Task</title>
<path fill="none" stroke="#6faca6" d="M445.766,-552.838C474.857,-551.658 498,-544.045 498,-530 498,-515.955 474.857,-508.342 445.766,-507.162"/>
<polygon fill="#6faca6" stroke="#6faca6" points="445.697,-552.839 435.629,-548.492 440.697,-552.915 435.698,-552.991 435.698,-552.991 435.698,-552.991 440.697,-552.915 435.766,-557.491 445.697,-552.839 445.697,-552.839"/>
<polygon fill="#6faca6" stroke="#6faca6" points="445.697,-507.161 435.766,-502.509 440.697,-507.085 435.698,-507.009 435.698,-507.009 435.698,-507.009 440.697,-507.085 435.629,-511.508 445.697,-507.161 445.697,-507.161"/>
<text text-anchor="middle" x="519" y="-526.3" font-family="Times,serif" font-size="14.00">lockeds</text>
</g>
<!-- Task&#45;&gt;Task -->
<g id="edge9" class="edge"><title>Task&#45;&gt;Task</title>
<path fill="none" stroke="#fe335a" d="M445.82,-564.032C494.401,-567.022 540,-555.678 540,-530 540,-504.322 494.401,-492.978 445.82,-495.968"/>
<polygon fill="#fe335a" stroke="#fe335a" points="445.717,-564.024 436.117,-558.725 440.734,-563.617 435.751,-563.21 435.751,-563.21 435.751,-563.21 440.734,-563.617 435.384,-567.695 445.717,-564.024 445.717,-564.024"/>
<polygon fill="#fe335a" stroke="#fe335a" points="445.717,-495.976 435.384,-492.305 440.734,-496.383 435.751,-496.79 435.751,-496.79 435.751,-496.79 440.734,-496.383 436.117,-501.275 445.717,-495.976 445.717,-495.976"/>
<text text-anchor="middle" x="560" y="-526.3" font-family="Times,serif" font-size="14.00">lockers</text>
</g>
<!-- Column -->
<g id="node5" class="node"><title>Column</title>
<path fill="none" stroke="black" d="M348.5,-205.5C348.5,-205.5 455.5,-205.5 455.5,-205.5 461.5,-205.5 467.5,-211.5 467.5,-217.5 467.5,-217.5 467.5,-284.5 467.5,-284.5 467.5,-290.5 461.5,-296.5 455.5,-296.5 455.5,-296.5 348.5,-296.5 348.5,-296.5 342.5,-296.5 336.5,-290.5 336.5,-284.5 336.5,-284.5 336.5,-217.5 336.5,-217.5 336.5,-211.5 342.5,-205.5 348.5,-205.5"/>
<text text-anchor="middle" x="402" y="-281.3" font-family="Times,serif" font-size="14.00">Column</text>
<polyline fill="none" stroke="black" points="336.5,-273.5 467.5,-273.5 "/>
<text text-anchor="start" x="344.5" y="-258.3" font-family="Times,serif" font-size="14.00">id :integer</text>
<text text-anchor="start" x="344.5" y="-243.3" font-family="Times,serif" font-size="14.00">name :string</text>
<text text-anchor="start" x="344.5" y="-228.3" font-family="Times,serif" font-size="14.00">created_at :datetime</text>
<text text-anchor="start" x="344.5" y="-213.3" font-family="Times,serif" font-size="14.00">updated_at :datetime</text>
</g>
<!-- Task&#45;&gt;Column -->
<g id="edge5" class="edge"><title>Task&#45;&gt;Column</title>
<path fill="none" stroke="#ef7095" d="M374.381,-356.156C378.356,-337.524 382.324,-319.778 385.988,-304.384"/>
<ellipse fill="none" stroke="#ef7095" cx="373.491" cy="-360.354" rx="4.00001" ry="4.00001"/>
<ellipse fill="#ef7095" stroke="#ef7095" cx="386.938" cy="-300.445" rx="4.00001" ry="4.00001"/>
</g>
<!-- Comment -->
<g id="node6" class="node"><title>Comment</title>
<path fill="none" stroke="black" d="M160.5,-190.5C160.5,-190.5 267.5,-190.5 267.5,-190.5 273.5,-190.5 279.5,-196.5 279.5,-202.5 279.5,-202.5 279.5,-299.5 279.5,-299.5 279.5,-305.5 273.5,-311.5 267.5,-311.5 267.5,-311.5 160.5,-311.5 160.5,-311.5 154.5,-311.5 148.5,-305.5 148.5,-299.5 148.5,-299.5 148.5,-202.5 148.5,-202.5 148.5,-196.5 154.5,-190.5 160.5,-190.5"/>
<text text-anchor="middle" x="214" y="-296.3" font-family="Times,serif" font-size="14.00">Comment</text>
<polyline fill="none" stroke="black" points="148.5,-288.5 279.5,-288.5 "/>
<text text-anchor="start" x="156.5" y="-273.3" font-family="Times,serif" font-size="14.00">id :integer</text>
<text text-anchor="start" x="156.5" y="-258.3" font-family="Times,serif" font-size="14.00">task_id :integer</text>
<text text-anchor="start" x="156.5" y="-243.3" font-family="Times,serif" font-size="14.00">user_id :integer</text>
<text text-anchor="start" x="156.5" y="-228.3" font-family="Times,serif" font-size="14.00">description :string</text>
<text text-anchor="start" x="156.5" y="-213.3" font-family="Times,serif" font-size="14.00">created_at :datetime</text>
<text text-anchor="start" x="156.5" y="-198.3" font-family="Times,serif" font-size="14.00">updated_at :datetime</text>
</g>
<!-- Task&#45;&gt;Comment -->
<g id="edge3" class="edge"><title>Task&#45;&gt;Comment</title>
<path fill="none" stroke="#6f9680" d="M263.966,-356.853C257.992,-344.317 252.205,-332.172 246.816,-320.865"/>
<ellipse fill="none" stroke="#6f9680" cx="265.778" cy="-360.656" rx="4.00002" ry="4.00002"/>
<polygon fill="#6f9680" stroke="#6f9680" points="246.69,-320.6 246.451,-309.637 244.54,-316.087 242.389,-311.573 242.389,-311.573 242.389,-311.573 244.54,-316.087 238.326,-313.509 246.69,-320.6 246.69,-320.6"/>
</g>
<!-- Report -->
<g id="node7" class="node"><title>Report</title>
<path fill="none" stroke="black" d="M497.5,-190.5C497.5,-190.5 604.5,-190.5 604.5,-190.5 610.5,-190.5 616.5,-196.5 616.5,-202.5 616.5,-202.5 616.5,-299.5 616.5,-299.5 616.5,-305.5 610.5,-311.5 604.5,-311.5 604.5,-311.5 497.5,-311.5 497.5,-311.5 491.5,-311.5 485.5,-305.5 485.5,-299.5 485.5,-299.5 485.5,-202.5 485.5,-202.5 485.5,-196.5 491.5,-190.5 497.5,-190.5"/>
<text text-anchor="middle" x="551" y="-296.3" font-family="Times,serif" font-size="14.00">Report</text>
<polyline fill="none" stroke="black" points="485.5,-288.5 616.5,-288.5 "/>
<text text-anchor="start" x="493.5" y="-273.3" font-family="Times,serif" font-size="14.00">id :integer</text>
<text text-anchor="start" x="493.5" y="-258.3" font-family="Times,serif" font-size="14.00">task_id :integer</text>
<text text-anchor="start" x="493.5" y="-243.3" font-family="Times,serif" font-size="14.00">progress :decimal</text>
<text text-anchor="start" x="493.5" y="-228.3" font-family="Times,serif" font-size="14.00">created_at :datetime</text>
<text text-anchor="start" x="493.5" y="-213.3" font-family="Times,serif" font-size="14.00">updated_at :datetime</text>
<text text-anchor="start" x="493.5" y="-198.3" font-family="Times,serif" font-size="14.00">user_id :integer</text>
</g>
<!-- Task&#45;&gt;Report -->
<g id="edge2" class="edge"><title>Task&#45;&gt;Report</title>
<path fill="none" stroke="#950238" d="M440.545,-401.249C461.33,-373.164 482.555,-344.485 500.771,-319.87"/>
<ellipse fill="none" stroke="#950238" cx="437.997" cy="-404.691" rx="4.00002" ry="4.00002"/>
<polygon fill="#950238" stroke="#950238" points="500.88,-319.723 510.446,-314.362 503.855,-315.704 506.829,-311.685 506.829,-311.685 506.829,-311.685 503.855,-315.704 503.212,-309.008 500.88,-319.723 500.88,-319.723"/>
</g>
<!-- TaskPosition -->
<g id="node8" class="node"><title>TaskPosition</title>
<path fill="none" stroke="black" d="M348.5,-0.5C348.5,-0.5 455.5,-0.5 455.5,-0.5 461.5,-0.5 467.5,-6.5 467.5,-12.5 467.5,-12.5 467.5,-139.5 467.5,-139.5 467.5,-145.5 461.5,-151.5 455.5,-151.5 455.5,-151.5 348.5,-151.5 348.5,-151.5 342.5,-151.5 336.5,-145.5 336.5,-139.5 336.5,-139.5 336.5,-12.5 336.5,-12.5 336.5,-6.5 342.5,-0.5 348.5,-0.5"/>
<text text-anchor="middle" x="402" y="-136.3" font-family="Times,serif" font-size="14.00">TaskPosition</text>
<polyline fill="none" stroke="black" points="336.5,-128.5 467.5,-128.5 "/>
<text text-anchor="start" x="344.5" y="-113.3" font-family="Times,serif" font-size="14.00">id :integer</text>
<text text-anchor="start" x="344.5" y="-98.3" font-family="Times,serif" font-size="14.00">column_id :integer</text>
<text text-anchor="start" x="344.5" y="-83.3" font-family="Times,serif" font-size="14.00">task_id :integer</text>
<text text-anchor="start" x="344.5" y="-68.3" font-family="Times,serif" font-size="14.00">project_id :integer</text>
<text text-anchor="start" x="344.5" y="-53.3" font-family="Times,serif" font-size="14.00">user_id :integer</text>
<text text-anchor="start" x="344.5" y="-38.3" font-family="Times,serif" font-size="14.00">position :integer</text>
<text text-anchor="start" x="344.5" y="-23.3" font-family="Times,serif" font-size="14.00">created_at :datetime</text>
<text text-anchor="start" x="344.5" y="-8.3" font-family="Times,serif" font-size="14.00">updated_at :datetime</text>
</g>
<!-- Task&#45;&gt;TaskPosition -->
<g id="edge4" class="edge"><title>Task&#45;&gt;TaskPosition</title>
<path fill="none" stroke="#2b2590" d="M313.473,-355.918C309.338,-301.847 311.131,-242.606 327,-190 330.174,-179.479 334.683,-169.038 339.936,-158.998"/>
<ellipse fill="none" stroke="#2b2590" cx="313.827" cy="-360.216" rx="4" ry="4"/>
<ellipse fill="#2b2590" stroke="#2b2590" cx="341.967" cy="-155.275" rx="4.00002" ry="4.00002"/>
</g>
<!-- User -->
<g id="node4" class="node"><title>User</title>
<path fill="none" stroke="black" d="M621,-971C621,-971 797,-971 797,-971 803,-971 809,-977 809,-983 809,-983 809,-1215 809,-1215 809,-1221 803,-1227 797,-1227 797,-1227 621,-1227 621,-1227 615,-1227 609,-1221 609,-1215 609,-1215 609,-983 609,-983 609,-977 615,-971 621,-971"/>
<text text-anchor="middle" x="709" y="-1211.8" font-family="Times,serif" font-size="14.00">User</text>
<polyline fill="none" stroke="black" points="609,-1204 809,-1204 "/>
<text text-anchor="start" x="617" y="-1188.8" font-family="Times,serif" font-size="14.00">id :integer</text>
<text text-anchor="start" x="617" y="-1173.8" font-family="Times,serif" font-size="14.00">email :string</text>
<text text-anchor="start" x="617" y="-1158.8" font-family="Times,serif" font-size="14.00">encrypted_password :string</text>
<text text-anchor="start" x="617" y="-1143.8" font-family="Times,serif" font-size="14.00">reset_password_token :string</text>
<text text-anchor="start" x="617" y="-1128.8" font-family="Times,serif" font-size="14.00">reset_password_sent_at :datetime</text>
<text text-anchor="start" x="617" y="-1113.8" font-family="Times,serif" font-size="14.00">remember_created_at :datetime</text>
<text text-anchor="start" x="617" y="-1098.8" font-family="Times,serif" font-size="14.00">sign_in_count :integer</text>
<text text-anchor="start" x="617" y="-1083.8" font-family="Times,serif" font-size="14.00">current_sign_in_at :datetime</text>
<text text-anchor="start" x="617" y="-1068.8" font-family="Times,serif" font-size="14.00">last_sign_in_at :datetime</text>
<text text-anchor="start" x="617" y="-1053.8" font-family="Times,serif" font-size="14.00">current_sign_in_ip :string</text>
<text text-anchor="start" x="617" y="-1038.8" font-family="Times,serif" font-size="14.00">last_sign_in_ip :string</text>
<text text-anchor="start" x="617" y="-1023.8" font-family="Times,serif" font-size="14.00">created_at :datetime</text>
<text text-anchor="start" x="617" y="-1008.8" font-family="Times,serif" font-size="14.00">updated_at :datetime</text>
<text text-anchor="start" x="617" y="-993.8" font-family="Times,serif" font-size="14.00">name :string</text>
<text text-anchor="start" x="617" y="-978.8" font-family="Times,serif" font-size="14.00">role :string</text>
</g>
<!-- User&#45;&gt;ProjectUser -->
<g id="edge10" class="edge"><title>User&#45;&gt;ProjectUser</title>
<path fill="none" stroke="#7829ba" d="M717.283,-962.411C717.877,-952.121 718.455,-941.895 719,-932 725.592,-812.271 732.356,-672.379 736.084,-593.487"/>
<ellipse fill="none" stroke="#7829ba" cx="717.036" cy="-966.679" rx="4" ry="4"/>
<polygon fill="#7829ba" stroke="#7829ba" points="736.096,-593.225 741.062,-583.449 736.332,-588.231 736.567,-583.237 736.567,-583.237 736.567,-583.237 736.332,-588.231 732.072,-583.024 736.096,-593.225 736.096,-593.225"/>
</g>
<!-- User&#45;&gt;Task -->
<g id="edge12" class="edge"><title>User&#45;&gt;Task</title>
<path fill="none" stroke="#6b63a6" d="M604.013,-976.79C592.475,-962.001 581.22,-946.861 571,-932 521.656,-860.25 473.51,-776.837 434.502,-704.728"/>
<ellipse fill="none" stroke="#6b63a6" cx="606.503" cy="-979.959" rx="4.00002" ry="4.00002"/>
<polygon fill="#6b63a6" stroke="#6b63a6" points="434.293,-704.342 433.508,-693.404 431.92,-699.941 429.547,-695.54 429.547,-695.54 429.547,-695.54 431.92,-699.941 425.586,-697.675 434.293,-704.342 434.293,-704.342"/>
</g>
<!-- User&#45;&gt;Report -->
<g id="edge13" class="edge"><title>User&#45;&gt;Report</title>
<path fill="none" stroke="#cf7028" d="M778.766,-963.354C849.416,-806.328 932.606,-545.205 813,-364 771.956,-301.818 688.518,-274.036 626.777,-261.701"/>
<ellipse fill="none" stroke="#cf7028" cx="777.064" cy="-967.109" rx="4.00002" ry="4.00002"/>
<polygon fill="#cf7028" stroke="#cf7028" points="626.503,-261.648 617.519,-255.36 621.591,-260.715 616.679,-259.781 616.679,-259.781 616.679,-259.781 621.591,-260.715 615.838,-264.201 626.503,-261.648 626.503,-261.648"/>
</g>
<!-- Project -->
<g id="node9" class="node"><title>Project</title>
<path fill="none" stroke="black" d="M591.5,-735C591.5,-735 698.5,-735 698.5,-735 704.5,-735 710.5,-741 710.5,-747 710.5,-747 710.5,-919 710.5,-919 710.5,-925 704.5,-931 698.5,-931 698.5,-931 591.5,-931 591.5,-931 585.5,-931 579.5,-925 579.5,-919 579.5,-919 579.5,-747 579.5,-747 579.5,-741 585.5,-735 591.5,-735"/>
<text text-anchor="middle" x="645" y="-915.8" font-family="Times,serif" font-size="14.00">Project</text>
<polyline fill="none" stroke="black" points="579.5,-908 710.5,-908 "/>
<text text-anchor="start" x="587.5" y="-892.8" font-family="Times,serif" font-size="14.00">id :integer</text>
<text text-anchor="start" x="587.5" y="-877.8" font-family="Times,serif" font-size="14.00">name :string</text>
<text text-anchor="start" x="587.5" y="-862.8" font-family="Times,serif" font-size="14.00">start_date :datetime</text>
<text text-anchor="start" x="587.5" y="-847.8" font-family="Times,serif" font-size="14.00">end_date :datetime</text>
<text text-anchor="start" x="587.5" y="-832.8" font-family="Times,serif" font-size="14.00">progress :decimal</text>
<text text-anchor="start" x="587.5" y="-817.8" font-family="Times,serif" font-size="14.00">deleted :boolean</text>
<text text-anchor="start" x="587.5" y="-802.8" font-family="Times,serif" font-size="14.00">created_at :datetime</text>
<text text-anchor="start" x="587.5" y="-787.8" font-family="Times,serif" font-size="14.00">updated_at :datetime</text>
<text text-anchor="start" x="587.5" y="-772.8" font-family="Times,serif" font-size="14.00">man_hours :boolean</text>
<text text-anchor="start" x="587.5" y="-757.8" font-family="Times,serif" font-size="14.00">cost :float</text>
<text text-anchor="start" x="587.5" y="-742.8" font-family="Times,serif" font-size="14.00">input_url :string</text>
</g>
<!-- User&#45;&gt;Project -->
<g id="edge11" class="edge"><title>User&#45;&gt;Project</title>
<path fill="none" stroke="#4e8264" d="M675.703,-960.648C674.114,-954.095 672.529,-947.559 670.965,-941.106"/>
<polygon fill="#4e8264" stroke="#4e8264" points="675.769,-960.921 673.751,-971.7 676.947,-965.781 678.125,-970.64 678.125,-970.64 678.125,-970.64 676.947,-965.781 682.498,-969.58 675.769,-960.921 675.769,-960.921"/>
<polygon fill="#4e8264" stroke="#4e8264" points="670.881,-940.76 672.899,-929.981 669.703,-935.901 668.525,-931.042 668.525,-931.042 668.525,-931.042 669.703,-935.901 664.152,-932.102 670.881,-940.76 670.881,-940.76"/>
</g>
<!-- Column&#45;&gt;Task -->
<g id="edge15" class="edge"><title>Column&#45;&gt;Task</title>
<path fill="none" stroke="#2e2b76" d="M396.45,-306.664C394.038,-321.036 391.088,-337.34 387.834,-354.431"/>
<polygon fill="#2e2b76" stroke="#2e2b76" points="396.49,-306.424 402.55,-297.285 397.299,-301.49 398.109,-296.556 398.109,-296.556 398.109,-296.556 397.299,-301.49 393.669,-295.828 396.49,-306.424 396.49,-306.424"/>
<polygon fill="#2e2b76" stroke="#2e2b76" points="387.831,-354.447 381.525,-363.418 386.888,-359.357 385.945,-364.267 385.945,-364.267 385.945,-364.267 386.888,-359.357 390.364,-365.116 387.831,-354.447 387.831,-354.447"/>
</g>
<!-- Column&#45;&gt;TaskPosition -->
<g id="edge14" class="edge"><title>Column&#45;&gt;TaskPosition</title>
<path fill="none" stroke="#b07422" d="M402,-197.167C402,-185.934 402,-173.803 402,-161.719"/>
<ellipse fill="none" stroke="#b07422" cx="402" cy="-201.448" rx="4" ry="4"/>
<polygon fill="#b07422" stroke="#b07422" points="402,-161.599 406.5,-151.599 402,-156.599 402,-151.599 402,-151.599 402,-151.599 402,-156.599 397.5,-151.599 402,-161.599 402,-161.599"/>
</g>
<!-- Project&#45;&gt;ProjectUser -->
<g id="edge17" class="edge"><title>Project&#45;&gt;ProjectUser</title>
<path fill="none" stroke="#14132a" d="M677.804,-726.956C691.732,-682.359 707.494,-631.885 719.534,-593.333"/>
<ellipse fill="none" stroke="#14132a" cx="676.582" cy="-730.871" rx="4.00001" ry="4.00001"/>
<polygon fill="#14132a" stroke="#14132a" points="719.687,-592.842 726.964,-584.638 721.178,-588.069 722.668,-583.297 722.668,-583.297 722.668,-583.297 721.178,-588.069 718.373,-581.955 719.687,-592.842 719.687,-592.842"/>
</g>
<!-- Project&#45;&gt;Task -->
<g id="edge18" class="edge"><title>Project&#45;&gt;Task</title>
<path fill="none" stroke="#ee5dbe" d="M573.618,-760.14C534.406,-720.666 485.222,-671.153 442.617,-628.263"/>
<ellipse fill="none" stroke="#ee5dbe" cx="576.564" cy="-763.106" rx="4.00002" ry="4.00002"/>
<polygon fill="#ee5dbe" stroke="#ee5dbe" points="442.613,-628.259 438.758,-617.993 439.089,-624.711 435.565,-621.164 435.565,-621.164 435.565,-621.164 439.089,-624.711 432.372,-624.336 442.613,-628.259 442.613,-628.259"/>
</g>
<!-- Project&#45;&gt;TaskPosition -->
<g id="edge16" class="edge"><title>Project&#45;&gt;TaskPosition</title>
<path fill="none" stroke="#f23f6f" d="M647.52,-726.896C650.752,-556.382 652.981,-233.997 625,-190 592.287,-138.564 528.348,-109.554 477.291,-93.8453"/>
<ellipse fill="none" stroke="#f23f6f" cx="647.443" cy="-730.9" rx="4" ry="4"/>
<polygon fill="#f23f6f" stroke="#f23f6f" points="477.18,-93.8124 468.871,-86.6567 472.386,-92.3918 467.592,-90.9713 467.592,-90.9713 467.592,-90.9713 472.386,-92.3918 466.314,-95.2859 477.18,-93.8124 477.18,-93.8124"/>
</g>
</g>
</svg>
